<?xml version="1.0" encoding="UTF-8" standalone="no"?>
<!-- Svg Vector Icons : http://www.onlinewebfonts.com/icon -->

<svg
   version="1.1"
   x="0px"
   y="0px"
   viewBox="0 0 256 256"
   enable-background="new 0 0 256 256"
   xml:space="preserve"
   id="svg21"
   sodipodi:docname="icons_48018.svg"
   inkscape:version="1.3.2 (091e20e, 2023-11-25, custom)"
   xmlns:inkscape="http://www.inkscape.org/namespaces/inkscape"
   xmlns:sodipodi="http://sodipodi.sourceforge.net/DTD/sodipodi-0.dtd"
   xmlns="http://www.w3.org/2000/svg"
   xmlns:svg="http://www.w3.org/2000/svg"><defs
   id="defs21" /><sodipodi:namedview
   id="namedview21"
   pagecolor="#ffffff"
   bordercolor="#000000"
   borderopacity="0.25"
   inkscape:showpageshadow="2"
   inkscape:pageopacity="0.0"
   inkscape:pagecheckerboard="0"
   inkscape:deskcolor="#d1d1d1"
   inkscape:zoom="1.8147233"
   inkscape:cx="86.239044"
   inkscape:cy="141.34387"
   inkscape:window-width="1920"
   inkscape:window-height="1111"
   inkscape:window-x="-9"
   inkscape:window-y="-9"
   inkscape:window-maximized="1"
   inkscape:current-layer="svg21" />
<metadata
   id="metadata1"> Svg Vector Icons : http://www.onlinewebfonts.com/icon </metadata>
<g
   id="g21"
   style="fill:#ffffff"><g
     id="g20"
     style="fill:#ffffff"><g
       id="g4"
       style="fill:#ffffff"><g
         id="g3"
         style="fill:#ffffff"><path
           fill="#000000"
           d="M67,180.9v-57c0-13.8,10.6-24.4,24.4-24.4h73.2V83.2h-40.7c-9,0-16.3-7.3-16.3-16.3V18.1H26.3c-9,0-16.3,7.3-16.3,16.3v187.2c0,9,7.3,16.3,16.3,16.3h122.1c9,0,16.3-7.3,16.3-16.3v-16.3H91.4C77.5,205.3,67,194.7,67,180.9z"
           id="path1"
           style="fill:#ffffff" /><path
           fill="#000000"
           d="M123.9,75.1h40.7l-48.8-57V67C115.8,71.8,119.9,75.1,123.9,75.1z"
           id="path2"
           style="fill:#ffffff" /><path
           fill="#000000"
           d="M229.7,107.7H91.4c-9,0-16.3,7.3-16.3,16.3v57c0,9,7.3,16.3,16.3,16.3h138.3c9,0,16.3-7.3,16.3-16.3v-57C246,115,238.7,107.7,229.7,107.7z M123.9,132.1h-8.1v40.7h8.1v8.1H99.5v-8.1h8.1v-40.7h-8.1v-8.1h24.4V132.1z M148.3,172.8h8.1c4.9,0,8.1-3.3,8.1-8.1h8.1c0,9-7.3,16.3-16.3,16.3h-8.1c-9,0-16.3-7.3-16.3-16.3v-24.4c0-9,7.3-16.3,16.3-16.3h8.1c9,0,16.3,7.3,16.3,16.3h-8.1c0-4.9-3.3-8.1-8.1-8.1h-8.1c-4.9,0-8.1,3.3-8.1,8.1v24.4C140.2,169.5,143.5,172.8,148.3,172.8z M197.2,148.3h8.1c9,0,16.3,7.3,16.3,16.3c0,9-7.3,16.3-16.3,16.3h-8.1c-9,0-16.3-7.3-16.3-16.3l0,0h8.1l0,0c0,4.1,3.3,8.1,8.1,8.1h8.1c4.9,0,8.1-3.3,8.1-8.1c0-4.9-4.1-8.1-8.1-8.1h-8.1c-9,0-16.3-7.3-16.3-16.3s7.3-16.3,16.3-16.3h8.1c9,0,16.3,7.3,16.3,16.3h-8.1c0-4.1-3.3-8.1-8.1-8.1h-8.1c-4.9,0-8.1,3.3-8.1,8.1S193.1,148.3,197.2,148.3z"
           id="path3"
           style="fill:#ffffff" /></g></g><g
       id="g5"
       style="fill:#ffffff" /><g
       id="g6"
       style="fill:#ffffff" /><g
       id="g7"
       style="fill:#ffffff" /><g
       id="g8"
       style="fill:#ffffff" /><g
       id="g9"
       style="fill:#ffffff" /><g
       id="g10"
       style="fill:#ffffff" /><g
       id="g11"
       style="fill:#ffffff" /><g
       id="g12"
       style="fill:#ffffff" /><g
       id="g13"
       style="fill:#ffffff" /><g
       id="g14"
       style="fill:#ffffff" /><g
       id="g15"
       style="fill:#ffffff" /><g
       id="g16"
       style="fill:#ffffff" /><g
       id="g17"
       style="fill:#ffffff" /><g
       id="g18"
       style="fill:#ffffff" /><g
       id="g19"
       style="fill:#ffffff" /></g></g>
</svg>
